#!OML:ASF X:\für Bonn\!DataBase\2005_08_11_Bastian_Final\c3d\Bastian.ASF
:FULLY-SPECIFIED
:DEGREES
144
root -22.3324 17.6527 -0.346333 39.0966 -81.8248 -48.142
lowerback 8.0246 4.99322 7.42253
upperback 5.67239 6.91357 -4.65399
thorax 2.99467 3.77571 -9.40091
lowerneck -9.93306 -10.4469 -0.858612
upperneck 0.518735 -14.587 11.7722
head 2.97763 -7.0131 3.12029
rclavicle -8.54774e-014 5.08889e-014
rhumerus 56.6983 0.321726 -15.9239
rradius 21.6329
rwrist -23.3029
rhand -2.3556 -13.2526
rfingers 7.12502
rthumb 23.3323 -41.8586
lclavicle -8.54774e-014 5.08889e-014
lhumerus -22.7644 -13.1093 82.7523
lradius 14.4133
lwrist 13.3505
lhand -10.1292 -4.62284
lfingers 7.12502
lthumb 15.8593 24.7477
rfemur 0.542148 1.13253 25.5923
rtibia 27.7252
rfoot -10.5563 -17.3081
rtoes -6.95397
lfemur 1.78386 2.45327 -13.3664
ltibia 22.455
lfoot -8.40692 -6.80023
ltoes -19.6188
145
root -22.3311 17.6524 -0.338619 39.3723 -81.8909 -48.4355
lowerback 7.91412 4.978 7.421
upperback 5.68888 6.88807 -4.62687
thorax 3.06342 3.76599 -9.35784
lowerneck -9.91815 -10.3272 -0.800975
upperneck 1.28291 -14.5048 11.6976
head 3.2222 -6.93716 3.07979
rclavicle 1.15295e-014 -2.38542e-014
rhumerus 56.6624 0.423289 -15.9996
rradius 21.9233
rwrist -22.9935
rhand -3.08053 -13.25
rfingers 7.12502
rthumb 22.6367 -41.9426
lclavicle 1.15295e-014 -2.38542e-014
lhumerus -22.5782 -12.9646 82.764
lradius 14.2908
lwrist 13.224
lhand -10.068 -4.76776
lfingers 7.12502
lthumb 15.9181 24.5981
rfemur 0.545594 1.174 25.5487
rtibia 27.743
rfoot -10.5412 -17.2603
rtoes -7.05799
lfemur 1.82939 2.42072 -13.4252
ltibia 22.4338
lfoot -8.41051 -6.69087
ltoes -19.4997
146
root -22.3306 17.6525 -0.331266 39.6278 -81.9545 -48.7153
lowerback 7.79364 4.96517 7.41178
upperback 5.71678 6.86427 -4.60151
thorax 3.14959 3.75789 -9.31081
lowerneck -9.94737 -10.1954 -0.605588
upperneck 2.23906 -14.4409 11.8164
head 3.21332 -6.83717 2.75093
rclavicle 5.28767e-014 -9.06458e-014
rhumerus 56.6188 0.52734 -16.0698
rradius 22.2216
rwrist -22.6803
rhand -3.90014 -13.2841
rfingers 7.12502
rthumb 21.8498 -42.0705
lclavicle 5.28767e-014 -9.06458e-014
lhumerus -22.3646 -12.8601 82.7814
lradius 14.1631
lwrist 13.1047
lhand -10.0252 -4.91728
lfingers 7.12502
lthumb 15.9594 24.4452
rfemur 0.557919 1.18003 25.4983
rtibia 27.762
rfoot -10.5274 -17.1956
rtoes -7.17402
lfemur 1.8853 2.43409 -13.4755
ltibia 22.4104
lfoot -8.42687 -6.62364
ltoes -19.6377
147
root -22.3296 17.6515 -0.323502 40.1894 -82.0058 -49.3121
lowerback 7.70218 4.94985 7.42381
upperback 5.72461 6.84066 -4.55129
thorax 3.19759 3.74778 -9.25297
lowerneck -9.87824 -10.0738 -0.506242
upperneck 3.0171 -14.3635 11.7172
head 3.41849 -6.76346 2.69597
rclavicle -1.19668e-013 3.65764e-014
rhumerus 56.5655 0.655637 -16.1325
rradius 22.5513
rwrist -22.4069
rhand -4.75058 -13.2369
rfingers 7.12502
rthumb 21.033 -42.1163
lclavicle -1.19668e-013 3.65764e-014
lhumerus -22.1887 -12.8015 82.8432
lradius 14.0262
lwrist 13.06
lhand -9.9968 -5.03796
lfingers 7.12502
lthumb 15.9867 24.3224
rfemur 0.580833 1.25038 25.5007
rtibia 27.7761
rfoot -10.5282 -17.1648
rtoes -7.17345
lfemur 1.95182 2.41285 -13.487
ltibia 22.3901
lfoot -8.43529 -6.51627
ltoes -19.5115
148
root -22.3288 17.6512 -0.315529 40.551 -82.0842 -49.6892
lowerback 7.57353 4.93686 7.39093
upperback 5.7453 6.8151 -4.51102
thorax 3.27481 3.73675 -9.17598
lowerneck -9.78989 -9.9566 -0.40979
upperneck 3.78568 -14.2923 11.6236
head 3.61926 -6.69405 2.64434
rclavicle 3.89618e-014 -6.83819e-014
rhumerus 56.496 0.68704 -16.3371
rradius 22.9115
rwrist -22.0223
rhand -5.54457 -13.1268
rfingers 7.12502
rthumb 20.2701 -42.0891
lclavicle 3.89618e-014 -6.83819e-014
lhumerus -22.0095 -12.6674 82.8823
lradius 13.9318
lwrist 12.9476
lhand -9.98388 -5.16477
lfingers 7.12502
lthumb 15.9992 24.1946
rfemur 0.582449 1.29667 25.4532
rtibia 27.7919
rfoot -10.5081 -17.1181
rtoes -7.23334
lfemur 1.99681 2.41996 -13.5459
ltibia 22.3717
lfoot -8.46304 -6.418
ltoes -19.5411
149
root -22.3287 17.6513 -0.307055 41.0658 -82.1515 -50.2194
lowerback 7.44852 4.92572 7.39597
upperback 5.75384 6.79497 -4.48437
thorax 3.34553 3.72984 -9.1366
lowerneck -9.67553 -9.85028 -0.265799
upperneck 4.5589 -14.2448 11.5362
head 3.81642 -6.63662 2.58736
rclavicle -1.49884e-013 4.13472e-014
rhumerus 56.3759 0.657538 -16.6692
rradius 23.2943
rwrist -21.6884
rhand -6.35989 -12.9347
rfingers 7.12502
rthumb 19.4864 -41.9783
lclavicle -1.49884e-013 4.13472e-014
lhumerus -21.8287 -12.605 82.8968
lradius 13.8345
lwrist 12.9074
lhand -9.99268 -5.29477
lfingers 7.12502
lthumb 15.9907 24.0652
rfemur 0.586784 1.36036 25.4264
rtibia 27.8081
rfoot -10.4995 -17.0691
rtoes -7.18115
lfemur 2.04429 2.38622 -13.5893
ltibia 22.3504
lfoot -8.47379 -6.28536
ltoes -19.435
150
root -22.3283 17.6496 -0.298551 41.619 -82.2234 -50.814
lowerback 7.3439 4.91441 7.39236
upperback 5.77258 6.7744 -4.44515
thorax 3.41288 3.72196 -9.0803
lowerneck -9.50442 -9.73483 -0.0990036
upperneck 5.25866 -14.1759 11.4236
head 3.97757 -6.57509 2.52669
rclavicle -7.23576e-014 -7.95139e-015
rhumerus 56.2364 0.549398 -17.1296
rradius 23.7148
rwrist -21.3431
rhand -7.1681 -12.7321
rfingers 7.12502
rthumb 18.7091 -41.8524
lclavicle -7.23576e-014 -7.95139e-015
lhumerus -21.6485 -12.6014 82.9426
lradius 13.7406
lwrist 12.9154
lhand -10.0032 -5.37769
lfingers 7.12502
lthumb 15.9806 23.9831
rfemur 0.618094 1.44296 25.4104
rtibia 27.8235
rfoot -10.4866 -17.0349
rtoes -7.27317
lfemur 2.12244 2.38117 -13.6274
ltibia 22.3311
lfoot -8.50585 -6.18181
ltoes -19.4661
151
root -22.328 17.6499 -0.289734 42.0856 -82.3116 -51.2934
lowerback 7.21173 4.90763 7.3572
upperback 5.79015 6.75696 -4.40489
thorax 3.49046 3.71472 -9.00224
lowerneck -9.33964 -9.62625 0.0426225
upperneck 5.93129 -14.1121 11.3225
head 4.13485 -6.5172 2.4732
rclavicle -2.10712e-014 -6.36111e-015
rhumerus 56.0744 0.337815 -17.7218
rradius 24.2237
rwrist -21.0813
rhand -7.94161 -12.7146
rfingers 7.12502
rthumb 17.965 -41.9049
lclavicle -2.10712e-014 -6.36111e-015
lhumerus -21.4737 -12.617 83.0131
lradius 13.652
lwrist 12.9746
lhand -10.0246 -5.51044
lfingers 7.12502
lthumb 15.96 23.852
rfemur 0.618577 1.48107 25.3538
rtibia 27.8345
rfoot -10.4632 -16.9641
rtoes -7.3906
lfemur 2.1689 2.34188 -13.6996
ltibia 22.3194
lfoot -8.52622 -6.03209
ltoes -19.3493
152
root -22.3282 17.6493 -0.281023 42.6129 -82.4016 -51.8443
lowerback 7.09005 4.89508 7.32941
upperback 5.79624 6.7332 -4.37477
thorax 3.5511 3.70381 -8.94123
lowerneck -9.1188 -9.50852 0.204258
upperneck 6.5613 -14.0358 11.2433
head 4.26997 -6.45634 2.42827
rclavicle -9.54166e-015 1.11319e-014
rhumerus 55.8872 0.0803237 -18.451
rradius 24.8115
rwrist -20.9204
rhand -8.84068 -12.8458
rfingers 7.12502
rthumb 17.0998 -42.1133
lclavicle -9.54166e-015 1.11319e-014
lhumerus -21.3442 -12.6622 83.0655
lradius 13.5942
lwrist 13.0188
lhand -10.0549 -5.59995
lfingers 7.12502
lthumb 15.9308 23.7649
rfemur 0.628209 1.54806 25.3044
rtibia 27.8517
rfoot -10.4574 -16.9064
rtoes -7.43026
lfemur 2.22521 2.39472 -13.75
ltibia 22.3025
lfoot -8.5431 -5.95706
ltoes -19.3795
153
root -22.3281 17.6482 -0.271261 43.3584 -82.4631 -52.6206
lowerback 6.9881 4.88415 7.36187
upperback 5.79439 6.71607 -4.34593
thorax 3.6023 3.69829 -8.91837
lowerneck -8.92674 -9.40546 0.422978
upperneck 7.22112 -13.986 11.1161
head 4.41337 -6.40697 2.35682
rclavicle -3.22031e-014 1.59028e-014
rhumerus 55.6454 -0.249258 -19.3066
rradius 25.5054
rwrist -20.8352
rhand -9.88182 -13.1597
rfingers 7.12502
rthumb 16.0975 -42.5111
lclavicle -3.22031e-014 1.59028e-014
lhumerus -21.2015 -12.6805 83.0861
lradius 13.5147
lwrist 13.0547
lhand -10.0925 -5.71422
lfingers 7.12502
lthumb 15.8946 23.6535
rfemur 0.647199 1.61414 25.3001
rtibia 27.8637
rfoot -10.4371 -16.8594
rtoes -7.56418
lfemur 2.29 2.40019 -13.7653
ltibia 22.2875
lfoot -8.56031 -5.85085
ltoes -19.3264
154
root -22.3285 17.6479 -0.262159 43.9948 -82.5552 -53.271
lowerback 6.85184 4.86988 7.31641
upperback 5.80575 6.6881 -4.30908
thorax 3.67256 3.68477 -8.83855
lowerneck -8.79994 -9.31043 0.638989
upperneck 7.93002 -13.9507 10.9526
head 4.58145 -6.36132 2.26968
rclavicle 9.50191e-014 -4.6118e-014
rhumerus 55.4126 -0.594493 -20.1228
rradius 26.3092
rwrist -20.9238
rhand -10.9642 -13.5454
rfingers 7.12502
rthumb 15.055 -42.978
lclavicle 9.50191e-014 -4.6118e-014
lhumerus -21.0558 -12.6079 83.1089
lradius 13.4449
lwrist 13.0273
lhand -10.1526 -5.85331
lfingers 7.12502
lthumb 15.8367 23.519
rfemur 0.646012 1.66133 25.2502
rtibia 27.8795
rfoot -10.4099 -16.7651
rtoes -7.60936
lfemur 2.33654 2.40222 -13.8236
ltibia 22.2746
lfoot -8.59452 -5.73266
ltoes -19.3677
155
root -22.3287 17.647 -0.252012 44.6172 -82.6345 -53.9242
lowerback 6.7334 4.83578 7.27646
upperback 5.81303 6.63494 -4.26375
thorax 3.72284 3.65752 -8.75506
lowerneck -8.6566 -9.21439 0.85968
upperneck 8.64246 -13.9106 10.7584
head 4.74561 -6.31513 2.17401
rclavicle 7.95139e-015 -4.77083e-015
rhumerus 55.7787 -1.48738 -22.4018
rradius 26.1322
rwrist -19.6476
rhand -11.7436 -13.4378
rfingers 7.12502
rthumb 14.3041 -42.9251
lclavicle 7.95139e-015 -4.77083e-015
lhumerus -20.9655 -12.5529 83.1374
lradius 13.4084
lwrist 13.0627
lhand -10.1888 -5.99056
lfingers 7.12502
lthumb 15.8018 23.3845
rfemur 0.666337 1.74328 25.2122
rtibia 27.8911
rfoot -10.4033 -16.7214
rtoes -7.6264
lfemur 2.40249 2.40718 -13.8725
ltibia 22.2658
lfoot -8.61562 -5.63893
ltoes -19.2005
156
root -22.3296 17.6459 -0.242462 45.3979 -82.7334 -54.7183
lowerback 6.60491 4.81204 7.23275
upperback 5.81413 6.59529 -4.25048
thorax 3.77918 3.63787 -8.70357
lowerneck -8.55108 -9.13356 1.15847
upperneck 9.34867 -13.9045 10.5707
head 4.91224 -6.28244 2.06421
rclavicle 7.7526e-015 -2.54444e-014
rhumerus 56.0937 -2.3049 -24.5197
rradius 26.0744
rwrist -18.6056
rhand -12.6682 -13.364
rfingers 7.12502
rthumb 13.4131 -42.9122
lclavicle 7.7526e-015 -2.54444e-014
lhumerus -20.8445 -12.497 83.1022
lradius 13.344
lwrist 13.0698
lhand -10.2276 -6.14386
lfingers 7.12502
lthumb 15.7645 23.2342
rfemur 0.664174 1.79332 25.1622
rtibia 27.9064
rfoot -10.381 -16.6297
rtoes -7.77125
lfemur 2.45152 2.43361 -13.9299
ltibia 22.2531
lfoot -8.64313 -5.51032
ltoes -19.227
157
root -22.3295 17.645 -0.232254 46.1376 -82.8103 -55.4875
lowerback 6.49348 4.76842 7.17785
upperback 5.8212 6.529 -4.20305
thorax 3.82065 3.60277 -8.61056
lowerneck -8.3967 -9.06484 1.34969
upperneck 9.98611 -13.8987 10.4413
head 5.06145 -6.25508 1.99136
rclavicle -4.49253e-014 5.24792e-014
rhumerus 56.392 -3.01023 -26.3947
rradius 26.1898
rwrist -17.7809
rhand -13.635 -13.2592
rfingers 7.12502
rthumb 12.4811 -42.8665
lclavicle -4.49253e-014 5.24792e-014
lhumerus -20.7629 -12.3337 83.0896
lradius 13.3198
lwrist 13.0011
lhand -10.2729 -6.27295
lfingers 7.12502
lthumb 15.7208 23.1085
rfemur 0.678932 1.85331 25.1296
rtibia 27.9166
rfoot -10.351 -16.5698
rtoes -7.84911
lfemur 2.51394 2.43601 -13.9728
ltibia 22.2478
lfoot -8.68224 -5.39299
ltoes -19.1605
158
root -22.3306 17.6439 -0.221632 47.0144 -82.8928 -56.3951
lowerback 6.36823 4.72509 7.12035
upperback 5.83052 6.46231 -4.15249
thorax 3.87168 3.56772 -8.5115
lowerneck -8.23421 -9.00108 1.56146
upperneck 10.6091 -13.8972 10.2897
head 5.2025 -6.23144 1.90931
rclavicle -5.22804e-014 3.33958e-014
rhumerus 56.6331 -3.62544 -28.1148
rradius 26.4557
rwrist -17.1014
rhand -14.6387 -13.0836
rfingers 7.12502
rthumb 11.5132 -42.7474
lclavicle -5.22804e-014 3.33958e-014
lhumerus -20.7793 -12.3418 83.1261
lradius 13.4531
lwrist 13.1387
lhand -10.2903 -6.31623
lfingers 7.12502
lthumb 15.704 23.0665
rfemur 0.700773 1.91649 25.0984
rtibia 27.9294
rfoot -10.352 -16.4833
rtoes -7.90585
lfemur 2.57834 2.48684 -14.0041
ltibia 22.2424
lfoot -8.70645 -5.30634
ltoes -19.0384
